<svg width="16" height="16" viewBox="0 0 16 16" fill="none" xmlns="http://www.w3.org/2000/svg">
<ellipse cx="8" cy="8.07278" rx="8" ry="7.27273" fill="black"/>
<path d="M8.104 3.636V12H7.324V3.636H8.104ZM11.188 3.588V3.948H4.24V3.588H11.188ZM11.188 3.912V4.884L11.068 4.872V4.668C11.068 4.468 10.996 4.3 10.852 4.164C10.716 4.028 10.552 3.956 10.36 3.948V3.912H11.188ZM11.188 3.372V3.72L9.724 3.588C9.9 3.588 10.084 3.576 10.276 3.552C10.476 3.528 10.66 3.5 10.828 3.468C10.996 3.436 11.116 3.404 11.188 3.372ZM7.36 11.124V12H6.4V11.88C6.4 11.88 6.424 11.88 6.472 11.88C6.528 11.88 6.556 11.88 6.556 11.88C6.764 11.88 6.94 11.808 7.084 11.664C7.236 11.512 7.316 11.332 7.324 11.124H7.36ZM8.068 11.124H8.104C8.112 11.332 8.188 11.512 8.332 11.664C8.484 11.808 8.664 11.88 8.872 11.88C8.872 11.88 8.896 11.88 8.944 11.88C9 11.88 9.028 11.88 9.028 11.88V12H8.068V11.124ZM5.068 3.912V3.948C4.868 3.956 4.7 4.028 4.564 4.164C4.428 4.3 4.36 4.468 4.36 4.668V4.872L4.24 4.884V3.912H5.068ZM4.24 3.372C4.32 3.404 4.44 3.436 4.6 3.468C4.768 3.5 4.952 3.528 5.152 3.552C5.352 3.576 5.536 3.588 5.704 3.588L4.24 3.72V3.372Z" fill="#F0B41B"/>
</svg>
